<svg width="40" height="40" viewBox="0 0 40 40" fill="none" xmlns="http://www.w3.org/2000/svg">
<path d="M11.5217 25.478C13.9335 24.9022 16.8536 24.5653 19.9999 24.5653C23.1463 24.5653 26.0663 24.9022 28.4782 25.478C30.7619 26.0232 33.3305 27.3058 34.4635 28.196L20.7071 6.13411C20.3808 5.6109 19.619 5.6109 19.2928 6.13411L5.53638 28.196C6.66935 27.3058 9.23793 26.0232 11.5217 25.478Z" fill="#13EC5B"/>
<path fill-rule="evenodd" clip-rule="evenodd" d="M33.3316 29.8035C33.3286 29.7888 33.3228 29.7631 33.3123 29.7257C33.2863 29.6336 33.2457 29.5218 33.1954 29.4023C33.1806 29.3671 33.1657 29.333 33.151 29.3004C32.0918 28.5741 29.9823 27.5508 28.0912 27.0993C25.8228 26.5578 23.0343 26.2321 19.9999 26.2321C16.9655 26.2321 14.177 26.5578 11.9087 27.0993C10.0009 27.5547 7.8708 28.5922 6.82108 29.3195C6.81146 29.3398 6.80173 29.361 6.79203 29.3829C6.74925 29.4795 6.71427 29.574 6.6914 29.6577C6.66956 29.7375 6.66692 29.778 6.66663 29.7825C6.66659 29.783 6.66663 29.7827 6.66663 29.7825C6.66663 29.8036 6.67526 30.0641 7.2373 30.5264C7.78781 30.979 8.68509 31.4611 9.94084 31.8979C12.4368 32.766 15.9932 33.3335 19.9999 33.3335C24.0067 33.3335 27.5631 32.766 30.059 31.8979C31.3148 31.4611 32.212 30.979 32.7625 30.5264C33.2504 30.1251 33.3213 29.8761 33.3316 29.8035ZM4.12641 27.3075L17.8785 5.25243C18.8573 3.68279 21.1426 3.68278 22.1213 5.25243L35.8778 27.3144C35.8923 27.3379 35.9064 27.3617 35.9199 27.386L34.4635 28.1962C35.9199 27.386 35.9198 27.3857 35.9199 27.386L35.9208 27.3877L35.922 27.3898L35.925 27.3951L35.9332 27.41C35.9396 27.4219 35.948 27.4374 35.958 27.4563C35.9781 27.494 36.0051 27.5456 36.0366 27.6085C36.0991 27.7329 36.1829 27.9077 36.268 28.11C36.4083 28.4436 36.6666 29.1095 36.6666 29.7828C36.6666 31.2025 35.8358 32.3148 34.8798 33.101C33.9122 33.8966 32.6128 34.5389 31.1541 35.0462C28.2211 36.0664 24.2774 36.6669 19.9999 36.6669C15.7224 36.6669 11.7788 36.0664 8.84576 35.0462C7.38712 34.5389 6.08767 33.8966 5.12009 33.101C4.16405 32.3148 3.33325 31.2025 3.33325 29.7828C3.33325 29.0606 3.57713 28.4104 3.74427 28.033C3.83639 27.825 3.92783 27.6505 3.99732 27.5261C4.03241 27.4632 4.06282 27.4115 4.08618 27.3728C4.09788 27.3534 4.10788 27.3371 4.11589 27.3243L4.12211 27.3144L4.12641 27.3075ZM29.9889 24.1702L19.9999 8.15018L10.0108 24.1702C10.3883 24.051 10.7648 23.9454 11.1347 23.857C13.69 23.247 16.7417 22.8988 19.9999 22.8988C23.2582 22.8988 26.3098 23.247 28.8652 23.857C29.2349 23.9454 29.6115 24.051 29.9889 24.1702Z" fill="#13EC5B"/>
</svg>
